<svg width="82" height="75" viewBox="0 0 82 75" fill="none" xmlns="http://www.w3.org/2000/svg">
<path d="M9.75014 14.5162C28.3831 14.5162 46.9273 14.5162 65.5223 14.5162C64.9355 17.4945 64.3628 20.4015 63.782 23.3493C45.1501 23.3493 26.5813 23.3493 7.9761 23.3493C7.07327 27.9267 6.17962 32.4579 5.26926 37.073C23.9056 37.073 42.4508 37.073 61.0432 37.073C60.0177 42.2065 59.0112 47.2653 57.9811 52.3192C57.9428 52.5066 57.7038 52.7331 57.5103 52.7977C50.3005 55.2018 43.086 57.5913 35.8672 59.9681C35.6289 60.0465 35.3121 60.0465 35.0794 59.9582C28.8468 57.5928 22.6214 55.2085 16.3902 52.8393C16.0618 52.7144 15.9789 52.5629 16.0534 52.2272C16.2511 51.3361 16.4175 50.438 16.593 49.542C16.8274 48.3452 17.0588 47.1479 17.2904 45.9562C17.1753 45.9256 17.1347 45.9055 17.0941 45.9055C12.7371 45.9016 8.37988 45.9046 4.02284 45.8886C3.59737 45.8871 3.5609 46.1187 3.49904 46.4343C2.96823 49.143 2.42225 51.8487 1.88544 54.5563C1.37466 57.1344 0.869228 59.7138 0.357422 62.3128C0.543626 62.3964 0.692844 62.4721 0.848184 62.5316C11.2773 66.524 21.706 70.5173 32.1412 74.4938C32.4075 74.5953 32.7716 74.5902 33.0454 74.4996C45.0981 70.5126 57.1449 66.5079 69.1975 62.5202C69.5734 62.3959 69.7484 62.2177 69.8229 61.8409C71.0084 55.8424 72.2018 49.8455 73.3964 43.8487C76.0178 30.6885 78.6411 17.5287 81.2625 4.36869C81.4964 3.19433 81.7213 2.01818 81.9545 0.822393C58.751 0.822266 35.6338 0.822266 12.4894 0.822266C11.5799 5.3687 10.6771 9.8825 9.75014 14.5162Z" fill="url(#paint0_linear_411:432)"/>
<path d="M9.75027 14.5162C10.6772 9.8825 11.58 5.36871 12.4895 0.822266C35.6339 0.822266 58.751 0.822266 81.9545 0.822266C81.7213 2.01805 81.4965 3.1942 81.2625 4.36856C78.6412 17.5287 76.0178 30.6885 73.3964 43.8486C72.2019 49.8453 71.0084 55.8423 69.8229 61.8408C69.7484 62.2176 69.5734 62.3958 69.1975 62.5201C57.1449 66.5078 45.0981 70.5125 33.0454 74.4995C32.7716 74.5901 32.4075 74.5952 32.1412 74.4937C21.706 70.5172 11.2773 66.5239 0.848184 62.5315C0.692844 62.472 0.543754 62.3963 0.357422 62.3127C0.869228 59.7136 1.37466 57.1343 1.8857 54.5562C2.42237 51.8487 2.96849 49.143 3.4993 46.4342C3.56115 46.1186 3.59763 45.887 4.02309 45.8885C8.38014 45.9044 12.7373 45.9015 17.0944 45.9053C17.1349 45.9053 17.1756 45.9256 17.2906 45.9561C17.059 47.1478 16.8278 48.3451 16.5933 49.5419C16.4178 50.4379 16.2513 51.336 16.0537 52.2271C15.9792 52.5628 16.0621 52.7143 16.3905 52.8391C22.6216 55.2085 28.847 57.5928 35.0796 59.9581C35.3124 60.0465 35.6292 60.0464 35.8674 59.968C43.0863 57.5912 50.3009 55.2016 57.5106 52.7976C57.7041 52.733 57.9431 52.5067 57.9813 52.319C59.0113 47.2651 60.0179 42.2064 61.0435 37.0729C42.451 37.0729 23.9059 37.0729 5.26951 37.0729C6.17974 32.4578 7.07352 27.9266 7.97636 23.3491C26.5816 23.3491 45.1503 23.3491 63.7822 23.3491C64.363 20.4014 64.9358 17.4944 65.5226 14.516C46.9275 14.5162 28.3832 14.5162 9.75027 14.5162Z" fill="url(#paint1_linear_411:432)"/>
<defs>
<linearGradient id="paint0_linear_411:432" x1="41.1461" y1="74.5689" x2="41.1461" y2="0.820094" gradientUnits="userSpaceOnUse">
<stop stop-color="#F0FC02"/>
<stop offset="1" stop-color="#FEC401"/>
</linearGradient>
<linearGradient id="paint1_linear_411:432" x1="41.1461" y1="74.5687" x2="41.1461" y2="0.820094" gradientUnits="userSpaceOnUse">
<stop stop-color="#F0FC02"/>
<stop offset="1" stop-color="#FEC401"/>
</linearGradient>
</defs>
</svg>
