<svg width="91" height="112" viewBox="0 0 91 112" fill="none" xmlns="http://www.w3.org/2000/svg">
<path d="M55.1747 52.5184V53.2316C55.1747 58.5802 50.8067 62.9482 45.4581 62.9482C40.1095 62.9482 35.7415 58.5802 35.7415 53.2316V52.5184L4.89809 46.5459C4.27409 46.4567 3.65009 46.2784 3.11523 45.9219V72.843C3.11523 79.4396 8.46381 84.7882 15.0604 84.7882H75.945C82.5415 84.7882 87.8901 79.4396 87.8901 72.843V45.9219C87.3552 46.1893 86.7312 46.3676 86.1072 46.5459L55.1747 52.5184Z" fill="url(#paint0_linear_412:463)"/>
<path d="M76.0341 21.7633H65.1587V17.3062C65.1587 10.4422 59.5427 4.82617 52.6787 4.82617H38.2375C31.3735 4.82617 25.7575 10.4422 25.7575 17.3062V21.7633H14.8821C8.37466 21.7633 3.11523 27.0227 3.11523 33.5302V38.5222C3.11523 40.1267 4.27409 41.4639 5.78952 41.8205L35.7415 47.6147C35.8307 42.3553 40.1095 38.1656 45.4581 38.1656C50.7175 38.1656 55.0855 42.3553 55.1747 47.6147L85.0375 41.8205C86.6421 41.4639 87.801 40.1267 87.801 38.5222V33.441C87.801 27.0227 82.5415 21.7633 76.0341 21.7633ZM34.9392 17.217C34.9392 15.4342 36.4547 14.0079 38.1484 14.0079H52.6787C54.4615 14.0079 55.8878 15.5233 55.8878 17.217V21.6742H34.9392V17.217Z" fill="url(#paint1_linear_412:463)"/>
<path d="M50.3604 53.2299V47.8814C50.3604 45.2071 48.1318 42.9785 45.4575 42.9785C42.7833 42.9785 40.5547 45.2071 40.5547 47.8814V53.2299C40.5547 55.9042 42.7833 58.1328 45.4575 58.1328C48.1318 58.1328 50.3604 55.9042 50.3604 53.2299Z" fill="url(#paint2_linear_412:463)"/>
<defs>
<linearGradient id="paint0_linear_412:463" x1="45.3896" y1="84.788" x2="45.3896" y2="45.9219" gradientUnits="userSpaceOnUse">
<stop stop-color="#FBF8D1"/>
<stop offset="0.552083" stop-color="#E6D197"/>
<stop offset="1" stop-color="#C1913D"/>
</linearGradient>
<linearGradient id="paint1_linear_412:463" x1="45.3452" y1="47.6146" x2="45.3452" y2="4.82617" gradientUnits="userSpaceOnUse">
<stop stop-color="#FBF8D1"/>
<stop offset="0.552083" stop-color="#E6D197"/>
<stop offset="1" stop-color="#C1913D"/>
</linearGradient>
<linearGradient id="paint2_linear_412:463" x1="45.4445" y1="58.1327" x2="45.4445" y2="42.9785" gradientUnits="userSpaceOnUse">
<stop stop-color="#FBF8D1"/>
<stop offset="0.552083" stop-color="#E6D197"/>
<stop offset="1" stop-color="#C1913D"/>
</linearGradient>
</defs>
</svg>
