<svg width="71" height="90" viewBox="0 0 71 90" fill="none" xmlns="http://www.w3.org/2000/svg">
<g clip-path="url(#clip0_412:444)">
<path d="M15.4707 24.7598V33.6448C15.4775 38.4609 17.2139 43.1127 20.3605 46.7448C23.5071 50.3769 27.8525 52.7451 32.5976 53.414V65.8531H24.3104V71.4062H46.4097V65.8531H38.1225V53.414C42.8676 52.7451 47.213 50.3769 50.3596 46.7448C53.5062 43.1127 55.2426 38.4609 55.2494 33.6448V24.7598H50.8295V33.6448C50.8295 37.7686 49.1997 41.7235 46.2986 44.6395C43.3975 47.5555 39.4628 49.1936 35.36 49.1936C31.2573 49.1936 27.3226 47.5555 24.4215 44.6395C21.5204 41.7235 19.8906 37.7686 19.8906 33.6448V24.7598H15.4707Z" fill="url(#paint0_linear_412:444)"/>
<path d="M45.3054 33.6451V10.3218C45.3054 7.67083 44.2576 5.12839 42.3926 3.25384C40.5276 1.37928 37.9982 0.326172 35.3607 0.326172C32.7232 0.326172 30.1937 1.37928 28.3287 3.25384C26.4638 5.12839 25.416 7.67083 25.416 10.3218V33.6451C25.416 36.2961 26.4638 38.8385 28.3287 40.7131C30.1937 42.5876 32.7232 43.6407 35.3607 43.6407C37.9982 43.6407 40.5276 42.5876 42.3926 40.7131C44.2576 38.8385 45.3054 36.2961 45.3054 33.6451V33.6451Z" fill="url(#paint1_linear_412:444)"/>
</g>
<defs>
<linearGradient id="paint0_linear_412:444" x1="35.4131" y1="24.7598" x2="35.4131" y2="71.406" gradientUnits="userSpaceOnUse">
<stop stop-color="#AD00FF"/>
<stop offset="1"/>
</linearGradient>
<linearGradient id="paint1_linear_412:444" x1="35.3872" y1="0.326172" x2="35.3872" y2="43.6406" gradientUnits="userSpaceOnUse">
<stop stop-color="#AD00FF"/>
<stop offset="1"/>
</linearGradient>
<clipPath id="clip0_412:444">
<rect width="70.7177" height="88.8504" fill="white" transform="translate(0.00195312 0.326172)"/>
</clipPath>
</defs>
</svg>
