<svg width="87" height="87" viewBox="0 0 87 87" fill="none" xmlns="http://www.w3.org/2000/svg">
<path d="M43.6609 0.773438C19.9071 0.773438 0.595703 20.0848 0.595703 43.8387C0.595703 67.5926 19.9071 86.9039 43.6609 86.9039C67.4148 86.9039 86.7262 67.5926 86.7262 43.8387C86.7262 20.0848 67.4148 0.773438 43.6609 0.773438ZM76.0279 27.3379H65.1482C63.6976 20.8101 61.5217 15.0983 58.6205 10.6558C66.1455 14.101 72.3107 19.9941 76.0279 27.3379ZM80.0171 43.8387C80.0171 47.1932 79.5637 50.5478 78.6571 53.6303H66.3269C66.6895 50.4571 66.8708 47.1932 66.8708 43.8387C66.8708 40.4841 66.6895 37.2202 66.3269 34.047H78.7478C79.5638 37.1296 80.0171 40.4841 80.0171 43.8387ZM7.30484 43.8387C7.30484 40.4841 7.75816 37.1296 8.66479 34.047H21.0857C20.723 37.2202 20.5417 40.4841 20.5417 43.8387C20.5417 47.1932 20.723 50.4571 21.0857 53.6303H8.66479C7.75816 50.5478 7.30484 47.1932 7.30484 43.8387ZM27.1601 43.8387C27.1601 40.5748 27.4321 37.3109 27.8854 34.047H40.3971V53.6303H27.8854C27.4321 50.3665 27.1601 47.1026 27.1601 43.8387ZM47.0155 8.29851C52.002 10.6558 55.9912 18.2715 58.1671 27.4286H47.0155V8.29851ZM40.3064 8.29851V27.4286H29.1548C31.3307 18.2715 35.3199 10.6558 40.3064 8.29851ZM40.3064 60.3395V79.4695C35.3199 77.1123 31.3307 69.4965 29.1548 60.3395H40.3064V60.3395ZM47.0155 79.3788V60.2488H58.1671C55.9912 69.4058 52.002 77.0215 47.0155 79.3788ZM47.0155 53.6303V34.047H59.5271C59.9804 37.3109 60.2524 40.5748 60.2524 43.8387C60.2524 47.1026 59.9804 50.3665 59.5271 53.6303H47.0155V53.6303ZM28.7014 10.7464C25.8909 15.189 23.6243 20.9008 22.1736 27.4286H11.294C15.0112 19.9942 21.1764 14.101 28.7014 10.7464ZM11.294 60.3395H22.1736C23.6243 66.8673 25.8002 72.579 28.7014 77.0216C21.1764 73.5763 15.0112 67.6832 11.294 60.3395ZM58.6205 76.9309C61.431 72.4884 63.6976 66.7766 65.1482 60.2488H76.0279C72.3107 67.6832 66.1455 73.5764 58.6205 76.9309Z" fill="url(#paint0_linear_412:439)"/>
<defs>
<linearGradient id="paint0_linear_412:439" x1="43.6506" y1="86.9041" x2="43.6506" y2="0.770901" gradientUnits="userSpaceOnUse">
<stop stop-color="#E61597"/>
<stop offset="1" stop-color="#4D4297"/>
</linearGradient>
</defs>
</svg>
