<svg width="102" height="20" viewBox="0 0 102 20" fill="none" xmlns="http://www.w3.org/2000/svg">
<path d="M5.61967 19H8.86896L12.5178 6.24254H12.6598L16.2997 19H19.549L24.6804 0.818181H21.1381L17.8622 14.1882H17.7024L14.1957 0.818181H10.973L7.47514 14.1793H7.30646L4.03054 0.818181H0.488281L5.61967 19ZM31.6675 19.2663C34.8458 19.2663 37.0297 17.7127 37.5979 15.3423L34.5972 15.005C34.1622 16.1591 33.0968 16.7628 31.7119 16.7628C29.6345 16.7628 28.2584 15.3956 28.2318 13.0607H37.7311V12.0753C37.7311 7.29013 34.8547 5.18608 31.4988 5.18608C27.5926 5.18608 25.0446 8.05362 25.0446 12.2617C25.0446 16.5408 27.5571 19.2663 31.6675 19.2663ZM28.2407 10.8945C28.3383 9.15447 29.6256 7.68963 31.5432 7.68963C33.3898 7.68963 34.6327 9.03906 34.6505 10.8945H28.2407ZM40.792 19H43.9525V16.8516H44.1389C44.6449 17.8459 45.7014 19.2397 48.0452 19.2397C51.2589 19.2397 53.6648 16.6918 53.6648 12.1996C53.6648 7.65412 51.1879 5.18608 48.0363 5.18608C45.6304 5.18608 44.6272 6.63317 44.1389 7.61861H44.0057V0.818181H40.792V19ZM43.9436 12.1818C43.9436 9.53622 45.08 7.8228 47.1485 7.8228C49.2881 7.8228 50.3889 9.64276 50.3889 12.1818C50.3889 14.7386 49.2703 16.603 47.1485 16.603C45.0977 16.603 43.9436 14.8274 43.9436 12.1818ZM62.9002 19C68.44 19 71.7248 15.5732 71.7248 9.89134C71.7248 4.22727 68.44 0.818181 63.0245 0.818181H56.739V19H62.9002ZM60.0327 16.1502V3.66797H62.8381C66.5313 3.66797 68.4578 5.72763 68.4578 9.89134C68.4578 14.0728 66.5313 16.1502 62.7404 16.1502H60.0327ZM80.9492 19.2663C84.1274 19.2663 86.3114 17.7127 86.8795 15.3423L83.8788 15.005C83.4438 16.1591 82.3785 16.7628 80.9935 16.7628C78.9161 16.7628 77.5401 15.3956 77.5134 13.0607H87.0127V12.0753C87.0127 7.29013 84.1363 5.18608 80.7805 5.18608C76.8742 5.18608 74.3263 8.05362 74.3263 12.2617C74.3263 16.5408 76.8387 19.2663 80.9492 19.2663ZM77.5223 10.8945C77.62 9.15447 78.9072 7.68963 80.8249 7.68963C82.6715 7.68963 83.9143 9.03906 83.9321 10.8945H77.5223ZM101.721 5.36364H98.3034L95.1606 15.4933H95.0186L91.8847 5.36364H88.4578L93.314 19H96.8651L101.721 5.36364Z" fill="#168FFF"/>
</svg>
