<svg width="61" height="69" viewBox="0 0 61 69" fill="none" xmlns="http://www.w3.org/2000/svg">
<path d="M58.1483 29.9452C56.7248 26.2099 55.1835 24.7865 52.0375 22.7647C48.8915 20.7429 41.0128 16.0555 34.1858 12.1117C27.3589 8.16781 19.4439 3.69809 16.316 2.13867C14.1492 1.02351 12.7439 0.533932 11.6106 1.02352L11.4111 1.13231L11.2933 1.19578L4.73828 4.71353L8.53709 7.5513C8.11284 10.937 7.92803 14.3483 7.98404 17.76V17.76C7.98404 26.5635 8.73655 32.0486 10.2053 35.784C11.6741 39.5193 13.1791 40.9518 16.307 43.0371C19.4349 45.1223 27.3407 49.7462 34.1858 53.69C39.2449 56.6185 44.8932 59.8098 48.7464 61.9132L49.5443 68.6133L56.9515 64.6785C57.4429 64.3929 57.8569 63.9914 58.1573 63.5089C59.6351 61.4781 60.3786 56.8542 60.3786 48.0961C60.3695 39.1657 59.6261 33.7168 58.1483 29.9452Z" fill="#DB302C"/>
<path d="M51.1122 33.7244C49.6978 29.98 48.1565 28.5565 45.0105 26.5347C41.8645 24.5129 33.9858 19.8256 27.1588 15.8818C20.3319 11.9379 12.4169 7.47724 9.28902 5.90876C6.16113 4.34028 4.58358 3.95043 3.16922 6.04476C1.75487 8.13909 0.957031 12.6995 0.957031 21.5392C0.957031 30.3426 1.70954 35.8278 3.16922 39.5631C4.62891 43.2985 6.15206 44.7309 9.27996 46.8162C12.4079 48.9015 20.3137 53.5253 27.1588 57.4783C34.0039 61.4312 41.8735 65.8465 45.0196 67.4513C48.1656 69.056 49.6978 69.3824 51.1212 67.279C52.5447 65.1756 53.3425 60.6243 53.3425 51.8208C53.3425 42.9449 52.6353 37.4869 51.1122 33.7244Z" fill="#F44336"/>
<path d="M20.6055 44.2329V21.5488L36.9703 42.338L20.6055 44.2329Z" fill="#FAFAFA"/>
</svg>
